REM DIRINDEX 1\2\6,1\2\7,1\2\8,1\2\9,1\3\10,1\3\11,1\4\12,1\4\13,1\4\14,1\5\15,1\5\16,1\5\17
REM DIRNAME folder01,folder02,folder03,folder04,folder05,folder06,folder07,folder08,folder09,folder10,folder11,folder12,folder13,folder14,folder15,folder16,folder17
TITLE ""
FILE "1900_3_064 sec11_1049_1066.mp3" MP3
  TRACK 01 AUDIO
    TITLE "0:"
    INDEX 01 00:00:00
  TRACK 02 AUDIO
    TITLE "17:cjc020_8075"
    INDEX 01 00:00:11
  TRACK 03 AUDIO
    TITLE "0:"
    INDEX 01 00:01:50
  TRACK 04 AUDIO
    TITLE "16:cjc020_8076"
    INDEX 01 00:01:54
  TRACK 05 AUDIO
    TITLE "0:"
    INDEX 01 00:02:55
  TRACK 06 AUDIO
    TITLE "17:cjc020_8077"
    INDEX 01 00:03:39
  TRACK 07 AUDIO
    TITLE "0:"
    INDEX 01 00:04:54
  TRACK 08 AUDIO
    TITLE "16:cjc020_8078"
    INDEX 01 00:04:56
  TRACK 09 AUDIO
    TITLE "0:"
    INDEX 01 00:05:67
  TRACK 10 AUDIO
    TITLE "17:cjc020_8079"
    INDEX 01 00:06:47
  TRACK 11 AUDIO
    TITLE "0:"
    INDEX 01 00:07:39
  TRACK 12 AUDIO
    TITLE "16:cjc020_8080"
    INDEX 01 00:07:41
  TRACK 13 AUDIO
    TITLE "0:"
    INDEX 01 00:08:60
  TRACK 14 AUDIO
    TITLE "17:cjc020_8081"
    INDEX 01 00:09:45
  TRACK 15 AUDIO
    TITLE "0:"
    INDEX 01 00:11:58
  TRACK 16 AUDIO
    TITLE "16:cjc020_8082"
    INDEX 01 00:11:64
  TRACK 17 AUDIO
    TITLE "0:"
    INDEX 01 00:13:00
  TRACK 18 AUDIO
    TITLE "17:cjc020_8083"
    INDEX 01 00:13:57
  TRACK 19 AUDIO
    TITLE "0:"
    INDEX 01 00:15:34
  TRACK 20 AUDIO
    TITLE "16:cjc020_8084"
    INDEX 01 00:15:46
  TRACK 21 AUDIO
    TITLE "0:"
    INDEX 01 00:16:40
  TRACK 22 AUDIO
    TITLE "17:cjc020_8085"
    INDEX 01 00:17:23
  TRACK 23 AUDIO
    TITLE "0:"
    INDEX 01 00:19:65
  TRACK 24 AUDIO
    TITLE "16:cjc020_8086"
    INDEX 01 00:19:69
  TRACK 25 AUDIO
    TITLE "0:"
    INDEX 01 00:20:73
  TRACK 26 AUDIO
    TITLE "17:cjc020_8087"
    INDEX 01 00:21:51
  TRACK 27 AUDIO
    TITLE "0:"
    INDEX 01 00:22:66
  TRACK 28 AUDIO
    TITLE "16:cjc020_8088"
    INDEX 01 00:22:70
  TRACK 29 AUDIO
    TITLE "0:"
    INDEX 01 00:23:67
  TRACK 30 AUDIO
    TITLE "17:cjc020_8089"
    INDEX 01 00:24:53
  TRACK 31 AUDIO
    TITLE "0:"
    INDEX 01 00:25:62
  TRACK 32 AUDIO
    TITLE "16:cjc020_8090"
    INDEX 01 00:25:70
  TRACK 33 AUDIO
    TITLE "0:"
    INDEX 01 00:27:02
  TRACK 34 AUDIO
    TITLE "17:cjc020_8091"
    INDEX 01 00:27:63
  TRACK 35 AUDIO
    TITLE "0:"
    INDEX 01 00:30:01
  TRACK 36 AUDIO
    TITLE "16:cjc020_8092"
    INDEX 01 00:30:03
  TRACK 37 AUDIO
    TITLE "0:"
    INDEX 01 00:31:06
  TRACK 38 AUDIO
    TITLE "17:cjc020_8093"
    INDEX 01 00:31:65
  TRACK 39 AUDIO
    TITLE "0:"
    INDEX 01 00:32:62
  TRACK 40 AUDIO
    TITLE "16:cjc020_8094"
    INDEX 01 00:32:66
  TRACK 41 AUDIO
    TITLE "0:"
    INDEX 01 00:33:64
  TRACK 42 AUDIO
    TITLE "17:cjc020_8095"
    INDEX 01 00:34:51
  TRACK 43 AUDIO
    TITLE "0:"
    INDEX 01 00:35:57
  TRACK 44 AUDIO
    TITLE "16:cjc020_8096"
    INDEX 01 00:35:63
  TRACK 45 AUDIO
    TITLE "0:"
    INDEX 01 00:36:68
  TRACK 46 AUDIO
    TITLE "17:cjc020_8097"
    INDEX 01 00:37:50
  TRACK 47 AUDIO
    TITLE "0:"
    INDEX 01 00:38:49
  TRACK 48 AUDIO
    TITLE "16:cjc020_8098"
    INDEX 01 00:38:53
  TRACK 49 AUDIO
    TITLE "0:"
    INDEX 01 00:39:45
  TRACK 50 AUDIO
    TITLE "17:cjc020_8099"
    INDEX 01 00:40:30
  TRACK 51 AUDIO
    TITLE "0:"
    INDEX 01 00:42:10
  TRACK 52 AUDIO
    TITLE "16:cjc020_8100"
    INDEX 01 00:42:14
  TRACK 53 AUDIO
    TITLE "0:"
    INDEX 01 00:43:21
  TRACK 54 AUDIO
    TITLE "17:cjc020_8101"
    INDEX 01 00:44:01
  TRACK 55 AUDIO
    TITLE "0:"
    INDEX 01 00:45:14
  TRACK 56 AUDIO
    TITLE "16:cjc020_8102"
    INDEX 01 00:45:18
  TRACK 57 AUDIO
    TITLE "0:"
    INDEX 01 00:46:39
  TRACK 58 AUDIO
    TITLE "17:cjc020_8103"
    INDEX 01 00:47:21
  TRACK 59 AUDIO
    TITLE "0:"
    INDEX 01 00:48:22
  TRACK 60 AUDIO
    TITLE "16:cjc020_8104"
    INDEX 01 00:48:24
  TRACK 61 AUDIO
    TITLE "0:"
    INDEX 01 00:49:21
  TRACK 62 AUDIO
    TITLE "17:cjc020_8105"
    INDEX 01 00:50:05
  TRACK 63 AUDIO
    TITLE "0:"
    INDEX 01 00:51:09
  TRACK 64 AUDIO
    TITLE "16:cjc020_8106"
    INDEX 01 00:51:16
  TRACK 65 AUDIO
    TITLE "0:"
    INDEX 01 00:52:30
  TRACK 66 AUDIO
    TITLE "17:cjc020_8107"
    INDEX 01 00:53:15
  TRACK 67 AUDIO
    TITLE "0:"
    INDEX 01 00:55:44
  TRACK 68 AUDIO
    TITLE "16:cjc020_8108"
    INDEX 01 00:55:59
  TRACK 69 AUDIO
    TITLE "0:"
    INDEX 01 00:56:57
  TRACK 70 AUDIO
    TITLE "17:cjc020_8109"
    INDEX 01 00:57:41
  TRACK 71 AUDIO
    TITLE "0:"
    INDEX 01 00:58:69
  TRACK 72 AUDIO
    TITLE "16:cjc020_8110"
    INDEX 01 00:59:00
  TRACK 73 AUDIO
    TITLE "0:"
    INDEX 01 01:00:00
